<svg xmlns="http://www.w3.org/2000/svg" viewBox="0 0 122.5 122.5" width="122.5" height="122.5">
 <path fill="#cccccc" d="M120.2,55.8L66.7,2.3c-3.1-3.1-8.1-3.1-11.2,0L44.4,13.4l14.1,14.1c3.3-1.1,7-0.4,9.6,2.2c2.6,2.6,3.4,6.4,2.2,9.7L84,53c3.3-1.1,7.1-0.4,9.7,2.2c3.7,3.7,3.7,9.6,0,13.3c-3.7,3.7-9.6,3.7-13.3,0c-2.8-2.8-3.4-6.8-2-10.2L65.7,45.7V79c0.9,0.4,1.7,1,2.5,1.8c3.7,3.7,3.7,9.6,0,13.3c-3.7,3.7-9.6,3.7-13.3,0c-3.7-3.7-3.7-9.6,0-13.3c0.9-0.9,2-1.6,3.1-2V45.1c-1.1-0.5-2.2-1.1-3.1-2c-2.8-2.8-3.4-6.9-2-10.3L39,18.9L2.3,55.6c-3.1,3.1-3.1,8.1,0,11.2l53.5,53.5c3.1,3.1,8.1,3.1,11.2,0L120.2,67C123.3,63.9,123.3,58.9,120.2,55.8"/>
</svg>
